# Blender v2.81 (sub 16) OBJ File: 'ActorModels.blend'
# www.blender.org
mtllib Protection.mtl
o Curve.002_Curve.005
v -0.025693 -0.000001 13.428657
v -5.281494 -0.000000 11.093238
v -5.281494 -0.000000 7.590110
v -5.235628 -0.000000 6.785597
v -5.101434 -0.000000 5.997079
v -4.884024 -0.000000 5.231793
v -4.588507 -0.000000 4.496978
v -4.219993 -0.000000 3.799870
v -3.783591 -0.000000 3.147707
v -3.284411 -0.000000 2.547725
v -2.727564 -0.000000 2.007163
v -2.118159 -0.000000 1.533258
v -1.461305 -0.000000 1.133246
v -0.762114 -0.000000 0.814367
v -0.025693 -0.000000 0.583855
v 0.710728 -0.000000 0.814366
v 1.409920 -0.000000 1.133246
v 2.066773 -0.000000 1.533257
v 2.676179 -0.000000 2.007163
v 3.233026 -0.000000 2.547725
v 3.732206 -0.000000 3.147707
v 4.168608 -0.000000 3.799870
v 4.537123 -0.000000 4.496979
v 4.832640 -0.000000 5.231794
v 5.050050 -0.000000 5.997079
v 5.184244 -0.000000 6.785597
v 5.230109 -0.000000 7.590110
v 5.230109 -0.000000 7.659037
v 5.230109 -0.000000 7.849601
v 5.230109 -0.000000 8.137474
v 5.230109 -0.000000 8.498328
v 5.230109 -0.000000 8.907838
v 5.230109 -0.000000 9.341674
v 5.230109 -0.000000 9.775510
v 5.230109 -0.000000 10.185019
v 5.230109 -0.000000 10.545874
v 5.230109 -0.000000 10.833747
v 5.230109 -0.000000 11.024310
v 5.230109 -0.000000 11.093238
v -1.193648 -0.000000 4.086982
v -3.529560 -0.000000 6.422401
v -2.706151 -0.000000 7.245636
v -1.193648 -0.000000 5.739291
v 2.654766 -0.000000 9.586893
v 3.478175 -0.000000 8.757819
v -0.065294 0.197538 13.666590
v -5.489922 0.197538 11.256153
v -5.489922 0.197538 7.640498
v -5.442583 0.197538 6.810142
v -5.304079 0.197538 5.996295
v -5.079684 0.197538 5.206428
v -4.774675 0.197538 4.448009
v -4.394323 0.197538 3.728508
v -3.943903 0.197538 3.055396
v -3.428689 0.197538 2.436142
v -2.853955 0.197538 1.878216
v -2.224974 0.197538 1.389087
v -1.547021 0.197538 0.976227
v -0.825370 0.197538 0.647104
v -0.065294 0.197538 0.409187
v 0.694782 0.197538 0.647103
v 1.416433 0.197538 0.976226
v 2.094386 0.197538 1.389087
v 2.723367 0.197538 1.878215
v 3.298101 0.197538 2.436142
v 3.813316 0.197538 3.055396
v 4.263736 0.197538 3.728508
v 4.644088 0.197538 4.448009
v 4.949098 0.197538 5.206428
v 5.173492 0.197538 5.996296
v 5.311996 0.197538 6.810143
v 5.359334 0.197538 7.640498
v 5.359334 0.197538 7.711639
v 5.359334 0.197538 7.908324
v 5.359334 0.197538 8.205444
v 5.359334 0.197538 8.577890
v 5.359334 0.197538 9.000554
v 5.359334 0.197538 9.448325
v 5.359334 0.197538 9.896098
v 5.359334 0.197538 10.318761
v 5.359334 0.197538 10.691207
v 5.359334 0.197538 10.988327
v 5.359334 0.197538 11.185012
v 5.359334 0.197538 11.256153
v -1.270767 0.197538 4.024843
v -3.681713 0.197538 6.435279
v -2.831854 0.197538 7.284958
v -1.270767 0.197538 5.730227
v 2.701267 0.197538 9.701422
v 3.551125 0.197538 8.845716
v -0.065294 0.761933 13.666590
v -5.489922 0.761933 11.256153
v -5.489922 0.761934 7.640498
v -5.442583 0.761934 6.810142
v -5.304079 0.761934 5.996295
v -5.079684 0.761934 5.206428
v -4.774675 0.761934 4.448009
v -4.394323 0.761934 3.728508
v -3.943903 0.761934 3.055396
v -3.428689 0.761934 2.436142
v -2.853955 0.761934 1.878216
v -2.224974 0.761934 1.389087
v -1.547021 0.761934 0.976227
v -0.825370 0.761934 0.647104
v -0.065294 0.761934 0.409187
v 0.694782 0.761934 0.647103
v 1.416433 0.761934 0.976226
v 2.094386 0.761934 1.389087
v 2.723367 0.761934 1.878215
v 3.298101 0.761934 2.436142
v 3.813316 0.761934 3.055396
v 4.263736 0.761934 3.728508
v 4.644088 0.761934 4.448009
v 4.949098 0.761934 5.206428
v 5.173492 0.761934 5.996296
v 5.311996 0.761934 6.810143
v 5.359334 0.761934 7.640498
v 5.359334 0.761934 7.711639
v 5.359334 0.761934 7.908324
v 5.359334 0.761934 8.205444
v 5.359334 0.761934 8.577890
v 5.359334 0.761934 9.000554
v 5.359334 0.761934 9.448325
v 5.359334 0.761934 9.896098
v 5.359334 0.761933 10.318761
v 5.359334 0.761933 10.691207
v 5.359334 0.761933 10.988327
v 5.359334 0.761933 11.185012
v 5.359334 0.761933 11.256153
v -1.270767 0.761934 4.024843
v -3.681713 0.761934 6.435279
v -2.831854 0.761934 7.284958
v -1.270767 0.761934 5.730227
v 2.701267 0.761934 9.701422
v 3.551125 0.761934 8.845716
v -0.022586 1.072351 13.409989
v -5.265141 1.072351 11.080456
v -5.265141 1.072351 7.586156
v -5.219390 1.072351 6.783671
v -5.085535 1.072351 5.997140
v -4.868673 1.072351 5.233784
v -4.573901 1.072351 4.500820
v -4.206315 1.072351 3.805469
v -3.771013 1.072351 3.154949
v -3.273092 1.072351 2.556480
v -2.717648 1.072351 2.017280
v -2.109779 1.072351 1.544569
v -1.454580 1.072351 1.145566
v -0.757151 1.072351 0.827489
v -0.022586 1.072351 0.597558
v 0.711979 1.072351 0.827489
v 1.409409 1.072351 1.145565
v 2.064607 1.072351 1.544568
v 2.672477 1.072351 2.017280
v 3.227921 1.072351 2.556480
v 3.725842 1.072351 3.154949
v 4.161144 1.072351 3.805470
v 4.528730 1.072351 4.500821
v 4.823503 1.072351 5.233784
v 5.040366 1.072351 5.997140
v 5.174221 1.072351 6.783672
v 5.219970 1.072351 7.586156
v 5.219970 1.072351 7.654910
v 5.219970 1.072351 7.844994
v 5.219970 1.072351 8.132141
v 5.219970 1.072351 8.492086
v 5.219970 1.072351 8.900563
v 5.219970 1.072351 9.333306
v 5.219970 1.072351 9.766049
v 5.219970 1.072351 10.174526
v 5.219970 1.072351 10.534472
v 5.219970 1.072351 10.821619
v 5.219970 1.072351 11.011703
v 5.219970 1.072351 11.080456
v -1.187598 1.072351 4.091858
v -3.517623 1.072351 6.421391
v -2.696289 1.072351 7.242550
v -1.187598 1.072351 5.740002
v 2.651118 1.072351 9.577908
v 3.472452 1.072351 8.750923
vn 0.0000 -1.0000 -0.0000
vn -0.7687 0.0000 -0.6396
vn 1.0000 0.0000 0.0000
vn -0.4061 0.0000 0.9138
vn -0.5201 0.0000 -0.8541
vn -0.9619 0.0000 -0.2733
vn -0.8311 0.0000 -0.5561
vn -0.9984 0.0000 -0.0569
vn 0.6139 0.0000 -0.7894
vn 0.9619 0.0000 -0.2733
vn 0.8311 0.0000 -0.5561
vn 0.7070 0.0000 0.7072
vn -0.7095 0.0000 -0.7047
vn -0.6139 0.0000 -0.7894
vn 0.7070 0.0000 -0.7072
vn 0.2987 0.0000 -0.9543
vn 0.6965 0.0000 -0.7175
vn -0.7057 0.0000 -0.7085
vn -0.2987 0.0000 -0.9543
vn -0.8841 0.0000 -0.4674
vn -0.9858 0.0000 -0.1678
vn 0.4150 0.0000 -0.9098
vn 0.8841 0.0000 -0.4674
vn 0.9858 0.0000 -0.1678
vn -0.6965 0.0000 -0.7175
vn 0.7687 0.0000 -0.6396
vn -0.4150 0.0000 -0.9098
vn -0.9278 0.0000 -0.3731
vn -1.0000 0.0000 0.0000
vn 0.5201 0.0000 -0.8541
vn 0.9278 0.0000 -0.3731
vn -0.7070 0.0000 0.7072
vn 0.4061 0.0000 0.9138
vn 0.9984 0.0000 -0.0569
vn 0.8368 -0.5474 -0.0000
vn 0.7123 -0.5152 -0.4766
vn 0.8241 -0.5159 -0.2341
vn 0.5119 -0.5520 -0.6583
vn -0.6924 -0.7205 -0.0395
vn -0.6073 -0.6827 -0.4064
vn -0.6843 -0.7028 -0.1944
vn -0.3857 -0.6708 -0.6334
vn -0.2623 -0.7635 0.5902
vn -0.5650 -0.6781 -0.4700
vn 0.8414 -0.5382 -0.0480
vn 0.2844 -0.7138 0.6400
vn -0.7060 -0.0535 0.7062
vn 0.7974 -0.5113 -0.3207
vn 0.4269 -0.5713 -0.7010
vn -0.6879 -0.7258 -0.0000
vn -0.6670 -0.6951 -0.2682
vn -0.3079 -0.6703 -0.6752
vn 0.6088 0.5086 -0.6089
vn 0.6549 -0.5236 -0.5449
vn -0.5141 -0.6747 -0.5296
vn 0.8391 -0.5249 -0.1428
vn 0.7599 -0.5111 -0.4017
vn 0.3340 -0.5932 -0.7325
vn -0.6929 -0.7113 -0.1179
vn -0.6413 -0.6884 -0.3390
vn -0.2216 -0.6705 -0.7080
vn -0.6744 -0.2944 -0.6772
vn 0.5881 -0.5359 -0.6058
vn 0.2351 -0.6170 -0.7511
vn 0.6869 0.2367 -0.6871
vn -0.4545 -0.6723 -0.5844
vn -0.6149 0.4988 -0.6107
vn 0.6328 0.4461 0.6329
vn -0.3153 0.6300 0.7097
vn -0.4419 0.5274 -0.7256
vn -0.7962 0.5612 -0.2262
vn 0.9123 0.4096 0.0000
vn -0.6996 0.5398 -0.4682
vn -0.8129 0.5805 -0.0463
vn 0.5589 0.4136 -0.7187
vn 0.8890 0.3819 -0.2526
vn 0.7683 0.3814 -0.5141
vn 0.6690 -0.3237 0.6691
vn -0.6599 -0.3674 -0.6554
vn -0.5210 0.5289 -0.6700
vn 0.6974 -0.1649 -0.6975
vn 0.2631 0.4738 -0.8404
vn 0.6386 0.3994 -0.6578
vn -0.6904 0.2068 -0.6932
vn -0.2539 0.5271 -0.8110
vn -0.7408 0.5458 -0.3916
vn -0.8097 0.5704 -0.1378
vn 0.3703 0.4513 -0.8119
vn 0.8185 0.3778 -0.4327
vn 0.9079 0.3898 -0.1545
vn -0.5901 0.5314 -0.6078
vn 0.7083 0.3886 -0.5893
vn 0.6552 -0.3757 -0.6554
vn -0.3527 0.5269 -0.7733
vn -0.7731 0.5529 -0.3109
vn -0.8099 0.5865 0.0000
vn 0.4693 0.4310 -0.7707
vn 0.8590 0.3780 -0.3454
vn -0.7066 0.0367 0.7067
vn 0.3327 0.5732 0.7488
vn 0.9144 0.4014 -0.0521
vn -0.6495 0.5350 -0.5403
vn 0.0000 1.0000 0.0000
usemtl None
s off
f 2//1 39//1 1//1
f 3//1 39//1 2//1
f 3//1 38//1 39//1
f 3//1 37//1 38//1
f 3//1 36//1 37//1
f 3//1 44//1 36//1
f 44//1 35//1 36//1
f 44//1 34//1 35//1
f 44//1 33//1 34//1
f 3//1 42//1 44//1
f 42//1 43//1 44//1
f 45//1 33//1 44//1
f 45//1 32//1 33//1
f 45//1 31//1 32//1
f 40//1 31//1 45//1
f 40//1 30//1 31//1
f 40//1 29//1 30//1
f 40//1 28//1 29//1
f 40//1 27//1 28//1
f 4//1 42//1 3//1
f 40//1 26//1 27//1
f 4//1 41//1 42//1
f 40//1 25//1 26//1
f 5//1 41//1 4//1
f 5//1 40//1 41//1
f 40//1 24//1 25//1
f 6//1 40//1 5//1
f 40//1 23//1 24//1
f 7//1 40//1 6//1
f 40//1 22//1 23//1
f 8//1 40//1 7//1
f 8//1 22//1 40//1
f 8//1 21//1 22//1
f 9//1 21//1 8//1
f 10//1 21//1 9//1
f 10//1 20//1 21//1
f 11//1 20//1 10//1
f 11//1 19//1 20//1
f 12//1 19//1 11//1
f 12//1 18//1 19//1
f 13//1 18//1 12//1
f 13//1 17//1 18//1
f 14//1 17//1 13//1
f 14//1 16//1 17//1
f 15//1 16//1 14//1
f 54//2 99//2 100//2 55//2
f 80//3 125//3 126//3 81//3
f 46//4 91//4 92//4 47//4
f 57//5 102//5 103//5 58//5
f 50//6 95//6 96//6 51//6
f 77//3 122//3 123//3 78//3
f 53//7 98//7 99//7 54//7
f 48//8 93//8 94//8 49//8
f 63//9 108//9 109//9 64//9
f 69//10 114//10 115//10 70//10
f 66//11 111//11 112//11 67//11
f 72//3 117//3 118//3 73//3
f 81//3 126//3 127//3 82//3
f 85//12 130//12 131//12 86//12
f 89//13 134//13 135//13 90//13
f 73//3 118//3 119//3 74//3
f 56//14 101//14 102//14 57//14
f 88//15 133//15 134//15 89//15
f 60//16 105//16 106//16 61//16
f 82//3 127//3 128//3 83//3
f 64//17 109//17 110//17 65//17
f 87//18 132//18 133//18 88//18
f 59//19 104//19 105//19 60//19
f 52//20 97//20 98//20 53//20
f 74//3 119//3 120//3 75//3
f 49//21 94//21 95//21 50//21
f 61//22 106//22 107//22 62//22
f 67//23 112//23 113//23 68//23
f 83//3 128//3 129//3 84//3
f 70//24 115//24 116//24 71//24
f 75//3 120//3 121//3 76//3
f 55//25 100//25 101//25 56//25
f 78//3 123//3 124//3 79//3
f 65//26 110//26 111//26 66//26
f 86//15 131//15 132//15 87//15
f 58//27 103//27 104//27 59//27
f 51//28 96//28 97//28 52//28
f 47//29 92//29 93//29 48//29
f 79//3 124//3 125//3 80//3
f 62//30 107//30 108//30 63//30
f 68//31 113//31 114//31 69//31
f 90//32 135//32 130//32 85//32
f 84//33 129//33 91//33 46//33
f 71//34 116//34 117//34 72//34
f 76//3 121//3 122//3 77//3
f 27//35 72//35 73//35 28//35
f 21//36 66//36 67//36 22//36
f 24//37 69//37 70//37 25//37
f 18//38 63//38 64//38 19//38
f 3//39 48//39 49//39 4//39
f 8//40 53//40 54//40 9//40
f 32//35 77//35 78//35 33//35
f 5//41 50//41 51//41 6//41
f 12//42 57//42 58//42 13//42
f 1//43 46//43 47//43 2//43
f 35//35 80//35 81//35 36//35
f 9//44 54//44 55//44 10//44
f 31//35 76//35 77//35 32//35
f 26//45 71//45 72//45 27//45
f 39//46 84//46 46//46 1//46
f 45//47 90//47 85//47 40//47
f 23//48 68//48 69//48 24//48
f 17//49 62//49 63//49 18//49
f 34//35 79//35 80//35 35//35
f 2//50 47//50 48//50 3//50
f 6//51 51//51 52//51 7//51
f 13//52 58//52 59//52 14//52
f 41//53 86//53 87//53 42//53
f 20//54 65//54 66//54 21//54
f 33//35 78//35 79//35 34//35
f 10//55 55//55 56//55 11//55
f 30//35 75//35 76//35 31//35
f 25//56 70//56 71//56 26//56
f 38//35 83//35 84//35 39//35
f 22//57 67//57 68//57 23//57
f 16//58 61//58 62//58 17//58
f 4//59 49//59 50//59 5//59
f 29//35 74//35 75//35 30//35
f 7//60 52//60 53//60 8//60
f 14//61 59//61 60//61 15//61
f 42//62 87//62 88//62 43//62
f 19//63 64//63 65//63 20//63
f 37//35 82//35 83//35 38//35
f 15//64 60//64 61//64 16//64
f 43//65 88//65 89//65 44//65
f 11//66 56//66 57//66 12//66
f 28//35 73//35 74//35 29//35
f 44//67 89//67 90//67 45//67
f 40//68 85//68 86//68 41//68
f 36//35 81//35 82//35 37//35
f 91//69 136//69 137//69 92//69
f 102//70 147//70 148//70 103//70
f 95//71 140//71 141//71 96//71
f 122//72 167//72 168//72 123//72
f 98//73 143//73 144//73 99//73
f 93//74 138//74 139//74 94//74
f 108//75 153//75 154//75 109//75
f 114//76 159//76 160//76 115//76
f 111//77 156//77 157//77 112//77
f 117//72 162//72 163//72 118//72
f 126//72 171//72 172//72 127//72
f 130//78 175//78 176//78 131//78
f 134//79 179//79 180//79 135//79
f 118//72 163//72 164//72 119//72
f 101//80 146//80 147//80 102//80
f 133//81 178//81 179//81 134//81
f 105//82 150//82 151//82 106//82
f 127//72 172//72 173//72 128//72
f 109//83 154//83 155//83 110//83
f 132//84 177//84 178//84 133//84
f 104//85 149//85 150//85 105//85
f 97//86 142//86 143//86 98//86
f 119//72 164//72 165//72 120//72
f 94//87 139//87 140//87 95//87
f 106//88 151//88 152//88 107//88
f 112//89 157//89 158//89 113//89
f 128//72 173//72 174//72 129//72
f 115//90 160//90 161//90 116//90
f 120//72 165//72 166//72 121//72
f 100//91 145//91 146//91 101//91
f 123//72 168//72 169//72 124//72
f 110//92 155//92 156//92 111//92
f 131//93 176//93 177//93 132//93
f 103//94 148//94 149//94 104//94
f 96//95 141//95 142//95 97//95
f 92//96 137//96 138//96 93//96
f 124//72 169//72 170//72 125//72
f 107//97 152//97 153//97 108//97
f 113//98 158//98 159//98 114//98
f 135//99 180//99 175//99 130//99
f 129//100 174//100 136//100 91//100
f 116//101 161//101 162//101 117//101
f 121//72 166//72 167//72 122//72
f 99//102 144//102 145//102 100//102
f 125//72 170//72 171//72 126//72
f 137//103 136//103 174//103
f 138//103 137//103 174//103
f 138//103 174//103 173//103
f 138//103 173//103 172//103
f 138//103 172//103 171//103
f 138//103 171//103 179//103
f 179//103 171//103 170//103
f 179//103 170//103 169//103
f 179//103 169//103 168//103
f 138//103 179//103 177//103
f 177//103 179//103 178//103
f 180//103 179//103 168//103
f 180//103 168//103 167//103
f 180//103 167//103 166//103
f 175//103 180//103 166//103
f 175//103 166//103 165//103
f 175//103 165//103 164//103
f 175//103 164//103 163//103
f 175//103 163//103 162//103
f 139//103 138//103 177//103
f 175//103 162//103 161//103
f 139//103 177//103 176//103
f 175//103 161//103 160//103
f 140//103 139//103 176//103
f 140//103 176//103 175//103
f 175//103 160//103 159//103
f 141//103 140//103 175//103
f 175//103 159//103 158//103
f 142//103 141//103 175//103
f 175//103 158//103 157//103
f 143//103 142//103 175//103
f 143//103 175//103 157//103
f 143//103 157//103 156//103
f 144//103 143//103 156//103
f 145//103 144//103 156//103
f 145//103 156//103 155//103
f 146//103 145//103 155//103
f 146//103 155//103 154//103
f 147//103 146//103 154//103
f 147//103 154//103 153//103
f 148//103 147//103 153//103
f 148//103 153//103 152//103
f 149//103 148//103 152//103
f 149//103 152//103 151//103
f 150//103 149//103 151//103
